# xmcd
#
# Track frame offsets: 
#        150
#        17727
#        49996
#        78075
#        88470
#        101468
#        112536
#        126444
#        140001
#        151843
#
# Disc length: 2221 seconds
#
# Revision: 0
# Processed by: cddbd v1.5.2PL0 Copyright (c) Steve Scherf et al.
# Submitted via: ExactAudioCopy v1.0b4
#
DISCID=7908ab0a
DTITLE=Buddy Guy - I Was Walking Through The Woods (LP)
DYEAR=1982
DGENRE=Blues
TTITLE0=Watch Yourself
TTITLE1=Stone Crazy
TTITLE2=I Found A True Love
TTITLE3=First Time I Met The Blues
TTITLE4=Let Me Love You Baby
TTITLE5=No Lie
TTITLE6=I Got A Strange Feeling
TTITLE7=My Time After Awhile
TTITLE8=Ten Years Ago
TTITLE9=Broken-Hearted Blues
EXTD=
EXTT0=
EXTT1=
EXTT2=
EXTT3=
EXTT4=
EXTT5=
EXTT6=
EXTT7=
EXTT8=
EXTT9=
PLAYORDER=
